<svg width="123" height="202" viewBox="0 0 123 202" fill="none" xmlns="http://www.w3.org/2000/svg">
<path d="M122 202H0L0 0L57.303 59.4118L122 0L122 202Z" fill="#555555"/>
<path d="M42.6207 119.633C39.8047 119.633 37.3513 119.1 35.2607 118.033C33.2127 116.967 31.6127 115.431 30.4607 113.425C29.3513 111.377 28.7967 108.967 28.7967 106.193V85.0734C28.7967 82.2574 29.3513 79.8467 30.4607 77.8414C31.6127 75.8361 33.2127 74.3001 35.2607 73.2334C37.3513 72.1667 39.8047 71.6334 42.6207 71.6334C45.4367 71.6334 47.8687 72.1881 49.9167 73.2974C51.9647 74.3641 53.5433 75.9001 54.6527 77.9054C55.762 79.9107 56.3167 82.3001 56.3167 85.0734H50.5567C50.5567 82.4281 49.8527 80.4014 48.4447 78.9934C47.0793 77.5427 45.138 76.8174 42.6207 76.8174C40.1033 76.8174 38.1193 77.5214 36.6687 78.9294C35.2607 80.3374 34.5567 82.3641 34.5567 85.0094V106.193C34.5567 108.839 35.2607 110.887 36.6687 112.337C38.1193 113.788 40.1033 114.513 42.6207 114.513C45.138 114.513 47.0793 113.788 48.4447 112.337C49.8527 110.887 50.5567 108.839 50.5567 106.193V100.433H41.0847V95.1854H56.3167V106.193C56.3167 108.924 55.762 111.313 54.6527 113.361C53.5433 115.367 51.9647 116.924 49.9167 118.033C47.8687 119.1 45.4367 119.633 42.6207 119.633Z" fill="white"/>
<path d="M66.4037 118.993V72.2734H73.9557L78.8197 87.3774C79.289 88.7427 79.7157 90.1081 80.0997 91.4734C80.4837 92.7961 80.761 93.8201 80.9317 94.5454C81.145 93.8201 81.4223 92.7961 81.7637 91.4734C82.105 90.1081 82.489 88.7214 82.9157 87.3134L87.5237 72.2734H95.0757V118.993H89.4437V102.033C89.4437 100.156 89.5077 98.0227 89.6357 95.6334C89.7637 93.2441 89.9343 90.8121 90.1477 88.3374C90.361 85.8201 90.5743 83.4307 90.7877 81.1694C91.0437 78.8654 91.257 76.8601 91.4277 75.1534L83.8757 98.5134H77.7957L70.1797 75.1534C70.393 76.8174 70.6063 78.7587 70.8197 80.9774C71.033 83.1534 71.225 85.4787 71.3957 87.9534C71.5663 90.3854 71.7157 92.8174 71.8437 95.2494C71.9717 97.6814 72.0357 99.9427 72.0357 102.033V118.993H66.4037Z" fill="#3B82F6"/>
</svg>
