<svg width="220" height="31" viewBox="0 0 220 31" fill="none" xmlns="http://www.w3.org/2000/svg">
<mask id="path-1-outside-1_6_6" maskUnits="userSpaceOnUse" x="201.413" y="19.9478" width="18" height="8" fill="black">
<rect fill="white" x="201.413" y="19.9478" width="18" height="8"/>
<path d="M203.098 27.0578C202.819 27.0578 202.596 26.9771 202.427 26.8158C202.266 26.6544 202.185 26.4381 202.185 26.1668C202.185 25.8808 202.266 25.6534 202.427 25.4848C202.596 25.3161 202.819 25.2318 203.098 25.2318C203.377 25.2318 203.597 25.3161 203.758 25.4848C203.927 25.6534 204.011 25.8808 204.011 26.1668C204.011 26.4381 203.927 26.6544 203.758 26.8158C203.597 26.9771 203.377 27.0578 203.098 27.0578Z"/>
<path d="M209.738 27.0578C209.254 27.0578 208.828 26.9661 208.462 26.7828C208.102 26.5994 207.824 26.3354 207.626 25.9908C207.428 25.6388 207.329 25.2244 207.329 24.7478V23.0978C207.329 22.6138 207.428 22.1994 207.626 21.8548C207.824 21.5101 208.102 21.2461 208.462 21.0628C208.828 20.8794 209.254 20.7878 209.738 20.7878C210.434 20.7878 210.995 20.9748 211.421 21.3488C211.846 21.7228 212.07 22.2324 212.092 22.8778H211.102C211.08 22.4891 210.948 22.1921 210.706 21.9868C210.471 21.7741 210.148 21.6678 209.738 21.6678C209.305 21.6678 208.96 21.7924 208.704 22.0418C208.447 22.2838 208.319 22.6321 208.319 23.0868V24.7478C208.319 25.2024 208.447 25.5544 208.704 25.8038C208.96 26.0531 209.305 26.1778 209.738 26.1778C210.148 26.1778 210.471 26.0714 210.706 25.8588C210.948 25.6461 211.08 25.3491 211.102 24.9678H212.092C212.07 25.6131 211.846 26.1228 211.421 26.4968C210.995 26.8708 210.434 27.0578 209.738 27.0578ZM216.289 27.0358C215.805 27.0358 215.387 26.9441 215.035 26.7608C214.683 26.5774 214.408 26.3134 214.21 25.9688C214.02 25.6168 213.924 25.2024 213.924 24.7258V23.1198C213.924 22.6358 214.02 22.2214 214.21 21.8768C214.408 21.5321 214.683 21.2681 215.035 21.0848C215.387 20.9014 215.805 20.8098 216.289 20.8098C216.773 20.8098 217.191 20.9014 217.543 21.0848C217.895 21.2681 218.167 21.5321 218.357 21.8768C218.555 22.2214 218.654 22.6321 218.654 23.1088V24.7258C218.654 25.2024 218.555 25.6168 218.357 25.9688C218.167 26.3134 217.895 26.5774 217.543 26.7608C217.191 26.9441 216.773 27.0358 216.289 27.0358ZM216.289 26.1558C216.722 26.1558 217.059 26.0348 217.301 25.7928C217.543 25.5508 217.664 25.1951 217.664 24.7258V23.1198C217.664 22.6504 217.543 22.2948 217.301 22.0528C217.059 21.8108 216.722 21.6898 216.289 21.6898C215.864 21.6898 215.527 21.8108 215.277 22.0528C215.035 22.2948 214.914 22.6504 214.914 23.1198V24.7258C214.914 25.1951 215.035 25.5508 215.277 25.7928C215.527 26.0348 215.864 26.1558 216.289 26.1558Z"/>
</mask>
<path d="M203.098 27.0578C202.819 27.0578 202.596 26.9771 202.427 26.8158C202.266 26.6544 202.185 26.4381 202.185 26.1668C202.185 25.8808 202.266 25.6534 202.427 25.4848C202.596 25.3161 202.819 25.2318 203.098 25.2318C203.377 25.2318 203.597 25.3161 203.758 25.4848C203.927 25.6534 204.011 25.8808 204.011 26.1668C204.011 26.4381 203.927 26.6544 203.758 26.8158C203.597 26.9771 203.377 27.0578 203.098 27.0578Z" fill="white"/>
<path d="M209.738 27.0578C209.254 27.0578 208.828 26.9661 208.462 26.7828C208.102 26.5994 207.824 26.3354 207.626 25.9908C207.428 25.6388 207.329 25.2244 207.329 24.7478V23.0978C207.329 22.6138 207.428 22.1994 207.626 21.8548C207.824 21.5101 208.102 21.2461 208.462 21.0628C208.828 20.8794 209.254 20.7878 209.738 20.7878C210.434 20.7878 210.995 20.9748 211.421 21.3488C211.846 21.7228 212.07 22.2324 212.092 22.8778H211.102C211.08 22.4891 210.948 22.1921 210.706 21.9868C210.471 21.7741 210.148 21.6678 209.738 21.6678C209.305 21.6678 208.96 21.7924 208.704 22.0418C208.447 22.2838 208.319 22.6321 208.319 23.0868V24.7478C208.319 25.2024 208.447 25.5544 208.704 25.8038C208.96 26.0531 209.305 26.1778 209.738 26.1778C210.148 26.1778 210.471 26.0714 210.706 25.8588C210.948 25.6461 211.08 25.3491 211.102 24.9678H212.092C212.07 25.6131 211.846 26.1228 211.421 26.4968C210.995 26.8708 210.434 27.0578 209.738 27.0578ZM216.289 27.0358C215.805 27.0358 215.387 26.9441 215.035 26.7608C214.683 26.5774 214.408 26.3134 214.21 25.9688C214.02 25.6168 213.924 25.2024 213.924 24.7258V23.1198C213.924 22.6358 214.02 22.2214 214.21 21.8768C214.408 21.5321 214.683 21.2681 215.035 21.0848C215.387 20.9014 215.805 20.8098 216.289 20.8098C216.773 20.8098 217.191 20.9014 217.543 21.0848C217.895 21.2681 218.167 21.5321 218.357 21.8768C218.555 22.2214 218.654 22.6321 218.654 23.1088V24.7258C218.654 25.2024 218.555 25.6168 218.357 25.9688C218.167 26.3134 217.895 26.5774 217.543 26.7608C217.191 26.9441 216.773 27.0358 216.289 27.0358ZM216.289 26.1558C216.722 26.1558 217.059 26.0348 217.301 25.7928C217.543 25.5508 217.664 25.1951 217.664 24.7258V23.1198C217.664 22.6504 217.543 22.2948 217.301 22.0528C217.059 21.8108 216.722 21.6898 216.289 21.6898C215.864 21.6898 215.527 21.8108 215.277 22.0528C215.035 22.2948 214.914 22.6504 214.914 23.1198V24.7258C214.914 25.1951 215.035 25.5508 215.277 25.7928C215.527 26.0348 215.864 26.1558 216.289 26.1558Z" fill="#3B82F6"/>
<path d="M202.427 26.8158L202.25 26.9926L202.254 26.9964L202.427 26.8158ZM202.427 25.4848L202.25 25.308L202.246 25.312L202.427 25.4848ZM203.758 25.4848L203.577 25.6576L203.581 25.6616L203.758 25.4848ZM203.758 26.8158L203.585 26.6351L203.581 26.639L203.758 26.8158ZM203.098 27.0578V26.8078C202.87 26.8078 202.713 26.7435 202.6 26.6351L202.427 26.8158L202.254 26.9964C202.478 27.2107 202.768 27.3078 203.098 27.3078V27.0578ZM202.427 26.8158L202.604 26.639C202.498 26.5333 202.435 26.3853 202.435 26.1668H202.185H201.935C201.935 26.4909 202.033 26.7756 202.25 26.9926L202.427 26.8158ZM202.185 26.1668H202.435C202.435 25.9298 202.5 25.7697 202.608 25.6576L202.427 25.4848L202.246 25.312C202.031 25.5372 201.935 25.8317 201.935 26.1668H202.185ZM202.427 25.4848L202.604 25.6616C202.718 25.5476 202.874 25.4818 203.098 25.4818V25.2318V24.9818C202.765 24.9818 202.474 25.0846 202.25 25.308L202.427 25.4848ZM203.098 25.2318V25.4818C203.323 25.4818 203.472 25.5477 203.577 25.6576L203.758 25.4848L203.939 25.312C203.721 25.0845 203.431 24.9818 203.098 24.9818V25.2318ZM203.758 25.4848L203.581 25.6616C203.694 25.7742 203.761 25.933 203.761 26.1668H204.011H204.261C204.261 25.8286 204.16 25.5327 203.935 25.308L203.758 25.4848ZM204.011 26.1668H203.761C203.761 26.3819 203.697 26.5287 203.585 26.6351L203.758 26.8158L203.931 26.9964C204.157 26.7802 204.261 26.4943 204.261 26.1668H204.011ZM203.758 26.8158L203.581 26.639C203.477 26.7435 203.326 26.8078 203.098 26.8078V27.0578V27.3078C203.427 27.3078 203.717 27.2108 203.935 26.9926L203.758 26.8158ZM208.462 26.7828L208.348 27.0055L208.35 27.0064L208.462 26.7828ZM207.626 25.9908L207.408 26.1133L207.409 26.1153L207.626 25.9908ZM207.626 21.8548L207.409 21.7302V21.7302L207.626 21.8548ZM208.462 21.0628L208.35 20.8392L208.348 20.8401L208.462 21.0628ZM211.421 21.3488L211.256 21.5365V21.5365L211.421 21.3488ZM212.092 22.8778V23.1278H212.35L212.342 22.8693L212.092 22.8778ZM211.102 22.8778L210.852 22.8919L210.866 23.1278H211.102V22.8778ZM210.706 21.9868L210.538 22.1721L210.544 22.1774L210.706 21.9868ZM208.704 22.0418L208.875 22.2237L208.878 22.2211L208.704 22.0418ZM208.704 25.8038L208.53 25.9831V25.9831L208.704 25.8038ZM210.706 25.8588L210.541 25.671L210.538 25.6735L210.706 25.8588ZM211.102 24.9678V24.7178H210.866L210.852 24.9534L211.102 24.9678ZM212.092 24.9678L212.342 24.9763L212.35 24.7178H212.092V24.9678ZM211.421 26.4968L211.256 26.309V26.309L211.421 26.4968ZM209.738 27.0578V26.8078C209.286 26.8078 208.9 26.7223 208.574 26.5592L208.462 26.7828L208.35 27.0064C208.757 27.2099 209.222 27.3078 209.738 27.3078V27.0578ZM208.462 26.7828L208.575 26.5601C208.259 26.3984 208.016 26.1682 207.843 25.8662L207.626 25.9908L207.409 26.1153C207.632 26.5027 207.946 26.8005 208.348 27.0055L208.462 26.7828ZM207.626 25.9908L207.844 25.8682C207.67 25.5599 207.579 25.1893 207.579 24.7478H207.329H207.079C207.079 25.2596 207.185 25.7177 207.408 26.1133L207.626 25.9908ZM207.329 24.7478H207.579V23.0978H207.329H207.079V24.7478H207.329ZM207.329 23.0978H207.579C207.579 22.648 207.671 22.2786 207.843 21.9793L207.626 21.8548L207.409 21.7302C207.185 22.1203 207.079 22.5795 207.079 23.0978H207.329ZM207.626 21.8548L207.843 21.9793C208.016 21.6773 208.259 21.4471 208.575 21.2855L208.462 21.0628L208.348 20.8401C207.946 21.0451 207.632 21.3429 207.409 21.7302L207.626 21.8548ZM208.462 21.0628L208.574 21.2864C208.9 21.1233 209.286 21.0378 209.738 21.0378V20.7878V20.5378C209.222 20.5378 208.757 20.6356 208.35 20.8392L208.462 21.0628ZM209.738 20.7878V21.0378C210.388 21.0378 210.886 21.2113 211.256 21.5365L211.421 21.3488L211.586 21.161C211.105 20.7382 210.481 20.5378 209.738 20.5378V20.7878ZM211.421 21.3488L211.256 21.5365C211.622 21.8585 211.822 22.2992 211.842 22.8863L212.092 22.8778L212.342 22.8693C212.318 22.1656 212.07 21.5871 211.586 21.161L211.421 21.3488ZM212.092 22.8778V22.6278H211.102V22.8778V23.1278H212.092V22.8778ZM211.102 22.8778L211.351 22.8636C211.326 22.4232 211.173 22.0555 210.868 21.7961L210.706 21.9868L210.544 22.1774C210.722 22.3287 210.833 22.555 210.852 22.8919L211.102 22.8778ZM210.706 21.9868L210.874 21.8015C210.581 21.536 210.192 21.4178 209.738 21.4178V21.6678V21.9178C210.105 21.9178 210.362 22.0122 210.538 22.172L210.706 21.9868ZM209.738 21.6678V21.4178C209.255 21.4178 208.842 21.5586 208.53 21.8625L208.704 22.0418L208.878 22.2211C209.079 22.0263 209.356 21.9178 209.738 21.9178V21.6678ZM208.704 22.0418L208.532 21.8599C208.212 22.1618 208.069 22.5842 208.069 23.0868H208.319H208.569C208.569 22.68 208.682 22.4057 208.875 22.2237L208.704 22.0418ZM208.319 23.0868H208.069V24.7478H208.319H208.569V23.0868H208.319ZM208.319 24.7478H208.069C208.069 25.2507 208.212 25.6748 208.53 25.9831L208.704 25.8038L208.878 25.6245C208.682 25.4341 208.569 25.1542 208.569 24.7478H208.319ZM208.704 25.8038L208.53 25.9831C208.842 26.2869 209.255 26.4278 209.738 26.4278V26.1778V25.9278C209.356 25.9278 209.079 25.8193 208.878 25.6245L208.704 25.8038ZM209.738 26.1778V26.4278C210.192 26.4278 210.581 26.3095 210.874 26.044L210.706 25.8588L210.538 25.6735C210.362 25.8334 210.105 25.9278 209.738 25.9278V26.1778ZM210.706 25.8588L210.871 26.0466C211.172 25.7816 211.326 25.4169 211.351 24.9822L211.102 24.9678L210.852 24.9534C210.833 25.2813 210.723 25.5106 210.541 25.671L210.706 25.8588ZM211.102 24.9678V25.2178H212.092V24.9678V24.7178H211.102V24.9678ZM212.092 24.9678L211.842 24.9593C211.822 25.5463 211.622 25.9871 211.256 26.309L211.421 26.4968L211.586 26.6845C212.07 26.2585 212.318 25.6799 212.342 24.9763L212.092 24.9678ZM211.421 26.4968L211.256 26.309C210.886 26.6342 210.388 26.8078 209.738 26.8078V27.0578V27.3078C210.481 27.3078 211.105 27.1073 211.586 26.6845L211.421 26.4968ZM215.035 26.7608L214.92 26.9825V26.9825L215.035 26.7608ZM214.21 25.9688L213.991 26.0879L213.994 26.0933L214.21 25.9688ZM214.21 21.8768L213.994 21.7522L213.992 21.7558L214.21 21.8768ZM215.035 21.0848L214.92 20.863V20.863L215.035 21.0848ZM217.543 21.0848L217.659 20.863H217.659L217.543 21.0848ZM218.357 21.8768L218.139 21.9978L218.141 22.0013L218.357 21.8768ZM218.357 25.9688L218.14 25.8462L218.139 25.8478L218.357 25.9688ZM217.543 26.7608L217.659 26.9825V26.9825L217.543 26.7608ZM217.301 25.7928L217.478 25.9696V25.9696L217.301 25.7928ZM215.277 22.0528L215.103 21.8734L215.101 21.876L215.277 22.0528ZM215.277 25.7928L215.101 25.9696L215.103 25.9722L215.277 25.7928ZM216.289 27.0358V26.7858C215.837 26.7858 215.46 26.7002 215.151 26.539L215.035 26.7608L214.92 26.9825C215.315 27.1881 215.774 27.2858 216.289 27.2858V27.0358ZM215.035 26.7608L215.151 26.539C214.841 26.3778 214.602 26.1476 214.427 25.8442L214.21 25.9688L213.994 26.0933C214.215 26.4793 214.526 26.7771 214.92 26.9825L215.035 26.7608ZM214.21 25.9688L214.43 25.8497C214.263 25.5406 214.174 25.1688 214.174 24.7258H213.924H213.674C213.674 25.2361 213.777 25.6929 213.991 26.0878L214.21 25.9688ZM213.924 24.7258H214.174V23.1198H213.924H213.674V24.7258H213.924ZM213.924 23.1198H214.174C214.174 22.6685 214.263 22.2978 214.429 21.9978L214.21 21.8768L213.992 21.7558C213.776 22.145 213.674 22.603 213.674 23.1198H213.924ZM214.21 21.8768L214.427 22.0013C214.602 21.698 214.841 21.4677 215.151 21.3065L215.035 21.0848L214.92 20.863C214.526 21.0685 214.215 21.3662 213.994 21.7522L214.21 21.8768ZM215.035 21.0848L215.151 21.3065C215.46 21.1454 215.837 21.0598 216.289 21.0598V20.8098V20.5598C215.774 20.5598 215.315 20.6575 214.92 20.863L215.035 21.0848ZM216.289 20.8098V21.0598C216.742 21.0598 217.119 21.1454 217.428 21.3065L217.543 21.0848L217.659 20.863C217.264 20.6575 216.805 20.5598 216.289 20.5598V20.8098ZM217.543 21.0848L217.428 21.3065C217.737 21.4673 217.972 21.6965 218.139 21.9978L218.357 21.8768L218.576 21.7558C218.362 21.3678 218.054 21.0689 217.659 20.863L217.543 21.0848ZM218.357 21.8768L218.141 22.0013C218.313 22.3012 218.404 22.6671 218.404 23.1088H218.654H218.904C218.904 22.5971 218.798 22.1417 218.574 21.7522L218.357 21.8768ZM218.654 23.1088H218.404V24.7258H218.654H218.904V23.1088H218.654ZM218.654 24.7258H218.404C218.404 25.1673 218.313 25.5379 218.14 25.8462L218.357 25.9688L218.575 26.0913C218.798 25.6957 218.904 25.2376 218.904 24.7258H218.654ZM218.357 25.9688L218.139 25.8478C217.972 26.1491 217.737 26.3782 217.428 26.539L217.543 26.7608L217.659 26.9825C218.054 26.7767 218.362 26.4778 218.576 26.0898L218.357 25.9688ZM217.543 26.7608L217.428 26.539C217.119 26.7002 216.742 26.7858 216.289 26.7858V27.0358V27.2858C216.805 27.2858 217.264 27.1881 217.659 26.9825L217.543 26.7608ZM216.289 26.1558V26.4058C216.77 26.4058 217.178 26.27 217.478 25.9696L217.301 25.7928L217.125 25.616C216.941 25.7995 216.674 25.9058 216.289 25.9058V26.1558ZM217.301 25.7928L217.478 25.9696C217.782 25.6654 217.914 25.2362 217.914 24.7258H217.664H217.414C217.414 25.154 217.305 25.4361 217.125 25.616L217.301 25.7928ZM217.664 24.7258H217.914V23.1198H217.664H217.414V24.7258H217.664ZM217.664 23.1198H217.914C217.914 22.6093 217.782 22.1801 217.478 21.876L217.301 22.0528L217.125 22.2296C217.305 22.4094 217.414 22.6916 217.414 23.1198H217.664ZM217.301 22.0528L217.478 21.876C217.178 21.5755 216.77 21.4398 216.289 21.4398V21.6898V21.9398C216.674 21.9398 216.941 22.046 217.125 22.2296L217.301 22.0528ZM216.289 21.6898V21.4398C215.815 21.4398 215.409 21.5764 215.103 21.8734L215.277 22.0528L215.452 22.2322C215.644 22.0452 215.914 21.9398 216.289 21.9398V21.6898ZM215.277 22.0528L215.101 21.876C214.797 22.1801 214.664 22.6093 214.664 23.1198H214.914H215.164C215.164 22.6916 215.274 22.4094 215.454 22.2296L215.277 22.0528ZM214.914 23.1198H214.664V24.7258H214.914H215.164V23.1198H214.914ZM214.914 24.7258H214.664C214.664 25.2362 214.797 25.6654 215.101 25.9696L215.277 25.7928L215.454 25.616C215.274 25.4361 215.164 25.154 215.164 24.7258H214.914ZM215.277 25.7928L215.103 25.9722C215.409 26.2692 215.815 26.4058 216.289 26.4058V26.1558V25.9058C215.914 25.9058 215.644 25.8004 215.452 25.6134L215.277 25.7928Z" fill="black" mask="url(#path-1-outside-1_6_6)"/>
<mask id="path-3-outside-2_6_6" maskUnits="userSpaceOnUse" x="6" y="-0.528" width="103" height="30" fill="black">
<rect fill="white" x="6" y="-0.528" width="103" height="30"/>
<path d="M14.5416 28.832C12.9576 28.832 11.5776 28.532 10.4016 27.932C9.24956 27.332 8.34956 26.468 7.70156 25.34C7.07756 24.188 6.76556 22.832 6.76556 21.272V9.392C6.76556 7.808 7.07756 6.452 7.70156 5.324C8.34956 4.196 9.24956 3.332 10.4016 2.732C11.5776 2.132 12.9576 1.832 14.5416 1.832C16.1256 1.832 17.4936 2.144 18.6456 2.768C19.7976 3.368 20.6856 4.232 21.3096 5.36C21.9336 6.488 22.2456 7.832 22.2456 9.392H19.0056C19.0056 7.904 18.6096 6.764 17.8176 5.972C17.0496 5.156 15.9576 4.748 14.5416 4.748C13.1256 4.748 12.0096 5.144 11.1936 5.936C10.4016 6.728 10.0056 7.868 10.0056 9.356V21.272C10.0056 22.76 10.4016 23.912 11.1936 24.728C12.0096 25.544 13.1256 25.952 14.5416 25.952C15.9576 25.952 17.0496 25.544 17.8176 24.728C18.6096 23.912 19.0056 22.76 19.0056 21.272V18.032H13.6776V15.08H22.2456V21.272C22.2456 22.808 21.9336 24.152 21.3096 25.304C20.6856 26.432 19.7976 27.308 18.6456 27.932C17.4936 28.532 16.1256 28.832 14.5416 28.832ZM35.9475 28.832C33.6675 28.832 31.8435 28.16 30.4755 26.816C29.1075 25.448 28.4235 23.6 28.4235 21.272V8.672H31.6635V21.272C31.6635 22.76 32.0475 23.924 32.8155 24.764C33.5835 25.58 34.6275 25.988 35.9475 25.988C37.2915 25.988 38.3475 25.58 39.1155 24.764C39.9075 23.924 40.3035 22.76 40.3035 21.272V8.672H43.5435V21.272C43.5435 23.6 42.8475 25.448 41.4555 26.816C40.0635 28.16 38.2275 28.832 35.9475 28.832ZM49.8294 28.472V25.52H56.8494V11.624H50.7294V8.672H60.0894V25.52H66.7494V28.472H49.8294ZM58.1094 5.108C57.3174 5.108 56.6934 4.904 56.2374 4.496C55.7814 4.088 55.5534 3.536 55.5534 2.84C55.5534 2.12 55.7814 1.556 56.2374 1.148C56.6934 0.715999 57.3174 0.5 58.1094 0.5C58.9014 0.5 59.5254 0.715999 59.9814 1.148C60.4374 1.556 60.6654 2.12 60.6654 2.84C60.6654 3.536 60.4374 4.088 59.9814 4.496C59.5254 4.904 58.9014 5.108 58.1094 5.108ZM81.8554 28.472C80.7034 28.472 79.6954 28.244 78.8314 27.788C77.9674 27.332 77.2954 26.684 76.8154 25.844C76.3354 25.004 76.0954 24.02 76.0954 22.892V5.144H69.4354V2.192H79.3354V22.892C79.3354 23.708 79.5634 24.356 80.0194 24.836C80.4754 25.292 81.0874 25.52 81.8554 25.52H88.1554V28.472H81.8554ZM99.5893 28.832C97.6213 28.832 96.0253 28.172 94.8013 26.852C93.6013 25.532 93.0013 23.744 93.0013 21.488V15.692C93.0013 13.412 93.6013 11.612 94.8013 10.292C96.0013 8.972 97.5973 8.312 99.5893 8.312C101.221 8.312 102.529 8.756 103.513 9.644C104.497 10.532 104.989 11.72 104.989 13.208L104.341 12.452H105.061L104.989 7.952V2.192H108.229V28.472H104.989V24.692H104.341L104.989 23.936C104.989 25.448 104.497 26.648 103.513 27.536C102.529 28.4 101.221 28.832 99.5893 28.832ZM100.669 26.024C102.013 26.024 103.069 25.604 103.837 24.764C104.605 23.924 104.989 22.76 104.989 21.272V15.872C104.989 14.384 104.605 13.22 103.837 12.38C103.069 11.54 102.013 11.12 100.669 11.12C99.3013 11.12 98.2213 11.528 97.4293 12.344C96.6373 13.16 96.2413 14.336 96.2413 15.872V21.272C96.2413 22.808 96.6373 23.984 97.4293 24.8C98.2213 25.616 99.3013 26.024 100.669 26.024Z"/>
</mask>
<path d="M14.5416 28.832C12.9576 28.832 11.5776 28.532 10.4016 27.932C9.24956 27.332 8.34956 26.468 7.70156 25.34C7.07756 24.188 6.76556 22.832 6.76556 21.272V9.392C6.76556 7.808 7.07756 6.452 7.70156 5.324C8.34956 4.196 9.24956 3.332 10.4016 2.732C11.5776 2.132 12.9576 1.832 14.5416 1.832C16.1256 1.832 17.4936 2.144 18.6456 2.768C19.7976 3.368 20.6856 4.232 21.3096 5.36C21.9336 6.488 22.2456 7.832 22.2456 9.392H19.0056C19.0056 7.904 18.6096 6.764 17.8176 5.972C17.0496 5.156 15.9576 4.748 14.5416 4.748C13.1256 4.748 12.0096 5.144 11.1936 5.936C10.4016 6.728 10.0056 7.868 10.0056 9.356V21.272C10.0056 22.76 10.4016 23.912 11.1936 24.728C12.0096 25.544 13.1256 25.952 14.5416 25.952C15.9576 25.952 17.0496 25.544 17.8176 24.728C18.6096 23.912 19.0056 22.76 19.0056 21.272V18.032H13.6776V15.08H22.2456V21.272C22.2456 22.808 21.9336 24.152 21.3096 25.304C20.6856 26.432 19.7976 27.308 18.6456 27.932C17.4936 28.532 16.1256 28.832 14.5416 28.832ZM35.9475 28.832C33.6675 28.832 31.8435 28.16 30.4755 26.816C29.1075 25.448 28.4235 23.6 28.4235 21.272V8.672H31.6635V21.272C31.6635 22.76 32.0475 23.924 32.8155 24.764C33.5835 25.58 34.6275 25.988 35.9475 25.988C37.2915 25.988 38.3475 25.58 39.1155 24.764C39.9075 23.924 40.3035 22.76 40.3035 21.272V8.672H43.5435V21.272C43.5435 23.6 42.8475 25.448 41.4555 26.816C40.0635 28.16 38.2275 28.832 35.9475 28.832ZM49.8294 28.472V25.52H56.8494V11.624H50.7294V8.672H60.0894V25.52H66.7494V28.472H49.8294ZM58.1094 5.108C57.3174 5.108 56.6934 4.904 56.2374 4.496C55.7814 4.088 55.5534 3.536 55.5534 2.84C55.5534 2.12 55.7814 1.556 56.2374 1.148C56.6934 0.715999 57.3174 0.5 58.1094 0.5C58.9014 0.5 59.5254 0.715999 59.9814 1.148C60.4374 1.556 60.6654 2.12 60.6654 2.84C60.6654 3.536 60.4374 4.088 59.9814 4.496C59.5254 4.904 58.9014 5.108 58.1094 5.108ZM81.8554 28.472C80.7034 28.472 79.6954 28.244 78.8314 27.788C77.9674 27.332 77.2954 26.684 76.8154 25.844C76.3354 25.004 76.0954 24.02 76.0954 22.892V5.144H69.4354V2.192H79.3354V22.892C79.3354 23.708 79.5634 24.356 80.0194 24.836C80.4754 25.292 81.0874 25.52 81.8554 25.52H88.1554V28.472H81.8554ZM99.5893 28.832C97.6213 28.832 96.0253 28.172 94.8013 26.852C93.6013 25.532 93.0013 23.744 93.0013 21.488V15.692C93.0013 13.412 93.6013 11.612 94.8013 10.292C96.0013 8.972 97.5973 8.312 99.5893 8.312C101.221 8.312 102.529 8.756 103.513 9.644C104.497 10.532 104.989 11.72 104.989 13.208L104.341 12.452H105.061L104.989 7.952V2.192H108.229V28.472H104.989V24.692H104.341L104.989 23.936C104.989 25.448 104.497 26.648 103.513 27.536C102.529 28.4 101.221 28.832 99.5893 28.832ZM100.669 26.024C102.013 26.024 103.069 25.604 103.837 24.764C104.605 23.924 104.989 22.76 104.989 21.272V15.872C104.989 14.384 104.605 13.22 103.837 12.38C103.069 11.54 102.013 11.12 100.669 11.12C99.3013 11.12 98.2213 11.528 97.4293 12.344C96.6373 13.16 96.2413 14.336 96.2413 15.872V21.272C96.2413 22.808 96.6373 23.984 97.4293 24.8C98.2213 25.616 99.3013 26.024 100.669 26.024Z" fill="white"/>
<path d="M10.4016 27.932L10.1706 28.3755L10.1743 28.3774L10.4016 27.932ZM7.70156 25.34L7.26178 25.5782L7.26801 25.5891L7.70156 25.34ZM7.70156 5.324L7.26796 5.07491L7.26405 5.08197L7.70156 5.324ZM10.4016 2.732L10.1743 2.2866L10.1706 2.28854L10.4016 2.732ZM18.6456 2.768L18.4074 3.2077L18.4146 3.21146L18.6456 2.768ZM22.2456 9.392V9.892H22.7456V9.392H22.2456ZM19.0056 9.392H18.5056V9.892H19.0056V9.392ZM17.8176 5.972L17.4535 6.31468L17.4587 6.3202L17.464 6.32555L17.8176 5.972ZM11.1936 5.936L10.8453 5.57717L10.84 5.58245L11.1936 5.936ZM11.1936 24.728L10.8347 25.0763L10.84 25.0816L11.1936 24.728ZM17.8176 24.728L17.4587 24.3797L17.4535 24.3853L17.8176 24.728ZM19.0056 18.032H19.5056V17.532H19.0056V18.032ZM13.6776 18.032H13.1776V18.532H13.6776V18.032ZM13.6776 15.08V14.58H13.1776V15.08H13.6776ZM22.2456 15.08H22.7456V14.58H22.2456V15.08ZM21.3096 25.304L21.7471 25.546L21.7492 25.5421L21.3096 25.304ZM18.6456 27.932L18.8766 28.3755L18.8837 28.3716L18.6456 27.932ZM14.5416 28.832V28.332C13.0209 28.332 11.7217 28.0442 10.6288 27.4866L10.4016 27.932L10.1743 28.3774C11.4334 29.0198 12.8942 29.332 14.5416 29.332V28.832ZM10.4016 27.932L10.6325 27.4885C9.56538 26.9327 8.73562 26.1363 8.13512 25.0909L7.70156 25.34L7.26801 25.5891C7.96351 26.7997 8.93375 27.7313 10.1706 28.3755L10.4016 27.932ZM7.70156 25.34L8.14121 25.1019C7.56373 24.0357 7.26556 22.7647 7.26556 21.272H6.76556H6.26556C6.26556 22.8993 6.5914 24.3403 7.26192 25.5781L7.70156 25.34ZM6.76556 21.272H7.26556V9.392H6.76556H6.26556V21.272H6.76556ZM6.76556 9.392H7.26556C7.26556 7.87349 7.56444 6.6048 8.13908 5.56603L7.70156 5.324L7.26405 5.08197C6.59069 6.29919 6.26556 7.74251 6.26556 9.392H6.76556ZM7.70156 5.324L8.13512 5.57306C8.73562 4.52774 9.56538 3.73126 10.6325 3.17546L10.4016 2.732L10.1706 2.28854C8.93375 2.93273 7.96351 3.86425 7.26801 5.07494L7.70156 5.324ZM10.4016 2.732L10.6288 3.17738C11.7217 2.61977 13.0209 2.332 14.5416 2.332V1.832V1.332C12.8942 1.332 11.4334 1.64422 10.1743 2.28662L10.4016 2.732ZM14.5416 1.832V2.332C16.0597 2.332 17.3424 2.63074 18.4074 3.20765L18.6456 2.768L18.8837 2.32835C17.6448 1.65726 16.1915 1.332 14.5416 1.332V1.832ZM18.6456 2.768L18.4146 3.21146C19.4802 3.76644 20.296 4.5607 20.872 5.60203L21.3096 5.36L21.7471 5.11797C21.0751 3.9033 20.115 2.96956 18.8765 2.32454L18.6456 2.768ZM21.3096 5.36L20.872 5.60203C21.4473 6.64186 21.7456 7.89897 21.7456 9.392H22.2456H22.7456C22.7456 7.76503 22.4199 6.33414 21.7471 5.11797L21.3096 5.36ZM22.2456 9.392V8.892H19.0056V9.392V9.892H22.2456V9.392ZM19.0056 9.392H19.5056C19.5056 7.81645 19.0846 6.53188 18.1711 5.61845L17.8176 5.972L17.464 6.32555C18.1346 6.99612 18.5056 7.99154 18.5056 9.392H19.0056ZM17.8176 5.972L18.1817 5.62932C17.2956 4.68789 16.0568 4.248 14.5416 4.248V4.748V5.248C15.8583 5.248 16.8035 5.62411 17.4535 6.31468L17.8176 5.972ZM14.5416 4.748V4.248C13.0291 4.248 11.7762 4.67369 10.8453 5.57721L11.1936 5.936L11.5418 6.29479C12.2429 5.61431 13.222 5.248 14.5416 5.248V4.748ZM11.1936 5.936L10.84 5.58245C9.92657 6.49588 9.50556 7.78045 9.50556 9.356H10.0056H10.5056C10.5056 7.95554 10.8766 6.96012 11.5471 6.28955L11.1936 5.936ZM10.0056 9.356H9.50556V21.272H10.0056H10.5056V9.356H10.0056ZM10.0056 21.272H9.50556C9.50556 22.8485 9.92691 24.1409 10.8348 25.0762L11.1936 24.728L11.5524 24.3798C10.8762 23.6831 10.5056 22.6715 10.5056 21.272H10.0056ZM11.1936 24.728L10.84 25.0816C11.7702 26.0118 13.025 26.452 14.5416 26.452V25.952V25.452C13.2262 25.452 12.2489 25.0762 11.5471 24.3744L11.1936 24.728ZM14.5416 25.952V26.452C16.0568 26.452 17.2956 26.0121 18.1817 25.0707L17.8176 24.728L17.4535 24.3853C16.8035 25.0759 15.8583 25.452 14.5416 25.452V25.952ZM17.8176 24.728L18.1764 25.0762C19.0842 24.1409 19.5056 22.8485 19.5056 21.272H19.0056H18.5056C18.5056 22.6715 18.1349 23.6831 17.4588 24.3798L17.8176 24.728ZM19.0056 21.272H19.5056V18.032H19.0056H18.5056V21.272H19.0056ZM19.0056 18.032V17.532H13.6776V18.032V18.532H19.0056V18.032ZM13.6776 18.032H14.1776V15.08H13.6776H13.1776V18.032H13.6776ZM13.6776 15.08V15.58H22.2456V15.08V14.58H13.6776V15.08ZM22.2456 15.08H21.7456V21.272H22.2456H22.7456V15.08H22.2456ZM22.2456 21.272H21.7456C21.7456 22.7392 21.448 23.9987 20.8699 25.0659L21.3096 25.304L21.7492 25.5421C22.4191 24.3053 22.7456 22.8768 22.7456 21.272H22.2456ZM21.3096 25.304L20.872 25.062C20.2951 26.105 19.4769 26.913 18.4074 27.4924L18.6456 27.932L18.8837 28.3716C20.1182 27.703 21.0761 26.759 21.7471 25.546L21.3096 25.304ZM18.6456 27.932L18.4146 27.4885C17.3479 28.0441 16.0626 28.332 14.5416 28.332V28.832V29.332C16.1885 29.332 17.6392 29.0199 18.8765 28.3755L18.6456 27.932ZM30.4755 26.816L30.1219 27.1696L30.1251 27.1727L30.4755 26.816ZM28.4235 8.672V8.172H27.9235V8.672H28.4235ZM31.6635 8.672H32.1635V8.172H31.6635V8.672ZM32.8155 24.764L32.4464 25.1014L32.4514 25.1067L32.8155 24.764ZM39.1155 24.764L38.7517 24.421L38.7514 24.4213L39.1155 24.764ZM40.3035 8.672V8.172H39.8035V8.672H40.3035ZM43.5435 8.672H44.0435V8.172H43.5435V8.672ZM41.4555 26.816L41.8028 27.1757L41.806 27.1726L41.4555 26.816ZM35.9475 28.832V28.332C33.7721 28.332 32.0831 27.6944 30.8259 26.4593L30.4755 26.816L30.1251 27.1727C31.6039 28.6256 33.5629 29.332 35.9475 29.332V28.832ZM30.4755 26.816L30.8291 26.4624C29.5734 25.2068 28.9235 23.4962 28.9235 21.272H28.4235H27.9235C27.9235 23.7038 28.6416 25.6892 30.1219 27.1696L30.4755 26.816ZM28.4235 21.272H28.9235V8.672H28.4235H27.9235V21.272H28.4235ZM28.4235 8.672V9.172H31.6635V8.672V8.172H28.4235V8.672ZM31.6635 8.672H31.1635V21.272H31.6635H32.1635V8.672H31.6635ZM31.6635 21.272H31.1635C31.1635 22.8455 31.571 24.1438 32.4465 25.1014L32.8155 24.764L33.1845 24.4266C32.524 23.7042 32.1635 22.6745 32.1635 21.272H31.6635ZM32.8155 24.764L32.4514 25.1067C33.3307 26.041 34.5163 26.488 35.9475 26.488V25.988V25.488C34.7387 25.488 33.8363 25.119 33.1796 24.4213L32.8155 24.764ZM35.9475 25.988V26.488C37.3997 26.488 38.5985 26.0428 39.4796 25.1067L39.1155 24.764L38.7514 24.4213C38.0965 25.1172 37.1833 25.488 35.9475 25.488V25.988ZM39.1155 24.764L39.4793 25.107C40.3819 24.1497 40.8035 22.8494 40.8035 21.272H40.3035H39.8035C39.8035 22.6706 39.4332 23.6983 38.7517 24.421L39.1155 24.764ZM40.3035 21.272H40.8035V8.672H40.3035H39.8035V21.272H40.3035ZM40.3035 8.672V9.172H43.5435V8.672V8.172H40.3035V8.672ZM43.5435 8.672H43.0435V21.272H43.5435H44.0435V8.672H43.5435ZM43.5435 21.272H43.0435C43.0435 23.4937 42.3832 25.2032 41.105 26.4594L41.4555 26.816L41.806 27.1726C43.3118 25.6928 44.0435 23.7063 44.0435 21.272H43.5435ZM41.4555 26.816L41.1082 26.4563C39.8258 27.6945 38.1227 28.332 35.9475 28.332V28.832V29.332C38.3323 29.332 40.3012 28.6255 41.8028 27.1757L41.4555 26.816ZM49.8294 28.472H49.3294V28.972H49.8294V28.472ZM49.8294 25.52V25.02H49.3294V25.52H49.8294ZM56.8494 25.52V26.02H57.3494V25.52H56.8494ZM56.8494 11.624H57.3494V11.124H56.8494V11.624ZM50.7294 11.624H50.2294V12.124H50.7294V11.624ZM50.7294 8.672V8.172H50.2294V8.672H50.7294ZM60.0894 8.672H60.5894V8.172H60.0894V8.672ZM60.0894 25.52H59.5894V26.02H60.0894V25.52ZM66.7494 25.52H67.2494V25.02H66.7494V25.52ZM66.7494 28.472V28.972H67.2494V28.472H66.7494ZM56.2374 4.496L55.904 4.86862H55.904L56.2374 4.496ZM56.2374 1.148L56.5708 1.52062L56.5761 1.51587L56.5813 1.51097L56.2374 1.148ZM59.9814 1.148L59.6376 1.51097L59.6427 1.51587L59.648 1.52062L59.9814 1.148ZM59.9814 4.496L60.3148 4.86862V4.86862L59.9814 4.496ZM49.8294 28.472H50.3294V25.52H49.8294H49.3294V28.472H49.8294ZM49.8294 25.52V26.02H56.8494V25.52V25.02H49.8294V25.52ZM56.8494 25.52H57.3494V11.624H56.8494H56.3494V25.52H56.8494ZM56.8494 11.624V11.124H50.7294V11.624V12.124H56.8494V11.624ZM50.7294 11.624H51.2294V8.672H50.7294H50.2294V11.624H50.7294ZM50.7294 8.672V9.172H60.0894V8.672V8.172H50.7294V8.672ZM60.0894 8.672H59.5894V25.52H60.0894H60.5894V8.672H60.0894ZM60.0894 25.52V26.02H66.7494V25.52V25.02H60.0894V25.52ZM66.7494 25.52H66.2494V28.472H66.7494H67.2494V25.52H66.7494ZM66.7494 28.472V27.972H49.8294V28.472V28.972H66.7494V28.472ZM58.1094 5.108V4.608C57.4033 4.608 56.9108 4.42755 56.5708 4.12338L56.2374 4.496L55.904 4.86862C56.4761 5.38045 57.2316 5.608 58.1094 5.608V5.108ZM56.2374 4.496L56.5708 4.12338C56.236 3.82378 56.0534 3.41541 56.0534 2.84H55.5534H55.0534C55.0534 3.65658 55.3269 4.35222 55.904 4.86862L56.2374 4.496ZM55.5534 2.84H56.0534C56.0534 2.23469 56.2398 1.81682 56.5708 1.52062L56.2374 1.148L55.904 0.775377C55.3231 1.29518 55.0534 2.00531 55.0534 2.84H55.5534ZM56.2374 1.148L56.5813 1.51097C56.9219 1.18832 57.4105 1 58.1094 1V0.5V0C57.2244 0 56.465 0.243677 55.8936 0.785021L56.2374 1.148ZM58.1094 0.5V1C58.8084 1 59.297 1.18832 59.6376 1.51097L59.9814 1.148L60.3253 0.785021C59.7539 0.243677 58.9945 0 58.1094 0V0.5ZM59.9814 1.148L59.648 1.52062C59.9791 1.81682 60.1654 2.23469 60.1654 2.84H60.6654H61.1654C61.1654 2.00531 60.8958 1.29518 60.3148 0.775377L59.9814 1.148ZM60.6654 2.84H60.1654C60.1654 3.41541 59.9829 3.82378 59.648 4.12338L59.9814 4.496L60.3148 4.86862C60.892 4.35222 61.1654 3.65658 61.1654 2.84H60.6654ZM59.9814 4.496L59.648 4.12338C59.3081 4.42755 58.8156 4.608 58.1094 4.608V5.108V5.608C58.9873 5.608 59.7428 5.38045 60.3148 4.86862L59.9814 4.496ZM78.8314 27.788L78.598 28.2302V28.2302L78.8314 27.788ZM76.8154 25.844L77.2495 25.5959V25.5959L76.8154 25.844ZM76.0954 5.144H76.5954V4.644H76.0954V5.144ZM69.4354 5.144H68.9354V5.644H69.4354V5.144ZM69.4354 2.192V1.692H68.9354V2.192H69.4354ZM79.3354 2.192H79.8354V1.692H79.3354V2.192ZM80.0194 24.836L79.6568 25.1805L79.6658 25.1896L80.0194 24.836ZM88.1554 25.52H88.6554V25.02H88.1554V25.52ZM88.1554 28.472V28.972H88.6554V28.472H88.1554ZM81.8554 28.472V27.972C80.7702 27.972 79.845 27.7576 79.0648 27.3458L78.8314 27.788L78.598 28.2302C79.5458 28.7304 80.6366 28.972 81.8554 28.972V28.472ZM78.8314 27.788L79.0648 27.3458C78.2839 26.9337 77.6819 26.3526 77.2495 25.5959L76.8154 25.844L76.3813 26.0921C76.9089 27.0154 77.6509 27.7303 78.598 28.2302L78.8314 27.788ZM76.8154 25.844L77.2495 25.5959C76.8194 24.8432 76.5954 23.9476 76.5954 22.892H76.0954H75.5954C75.5954 24.0924 75.8514 25.1648 76.3813 26.0921L76.8154 25.844ZM76.0954 22.892H76.5954V5.144H76.0954H75.5954V22.892H76.0954ZM76.0954 5.144V4.644H69.4354V5.144V5.644H76.0954V5.144ZM69.4354 5.144H69.9354V2.192H69.4354H68.9354V5.144H69.4354ZM69.4354 2.192V2.692H79.3354V2.192V1.692H69.4354V2.192ZM79.3354 2.192H78.8354V22.892H79.3354H79.8354V2.192H79.3354ZM79.3354 22.892H78.8354C78.8354 23.8048 79.0931 24.587 79.6569 25.1804L80.0194 24.836L80.3819 24.4916C80.0336 24.125 79.8354 23.6112 79.8354 22.892H79.3354ZM80.0194 24.836L79.6658 25.1896C80.2332 25.7569 80.9819 26.02 81.8554 26.02V25.52V25.02C81.1928 25.02 80.7176 24.8271 80.3729 24.4824L80.0194 24.836ZM81.8554 25.52V26.02H88.1554V25.52V25.02H81.8554V25.52ZM88.1554 25.52H87.6554V28.472H88.1554H88.6554V25.52H88.1554ZM88.1554 28.472V27.972H81.8554V28.472V28.972H88.1554V28.472ZM94.8013 26.852L94.4313 27.1884L94.4347 27.192L94.8013 26.852ZM94.8013 10.292L95.1713 10.6283V10.6283L94.8013 10.292ZM103.513 9.644L103.178 10.0152V10.0152L103.513 9.644ZM104.989 13.208L104.61 13.5334L105.489 14.5596V13.208H104.989ZM104.341 12.452V11.952H103.254L103.962 12.7774L104.341 12.452ZM105.061 12.452V12.952H105.569L105.561 12.444L105.061 12.452ZM104.989 7.952H104.489L104.489 7.96L104.989 7.952ZM104.989 2.192V1.692H104.489V2.192H104.989ZM108.229 2.192H108.729V1.692H108.229V2.192ZM108.229 28.472V28.972H108.729V28.472H108.229ZM104.989 28.472H104.489V28.972H104.989V28.472ZM104.989 24.692H105.489V24.192H104.989V24.692ZM104.341 24.692L103.962 24.3666L103.254 25.192H104.341V24.692ZM104.989 23.936H105.489V22.5844L104.61 23.6106L104.989 23.936ZM103.513 27.536L103.843 27.9118L103.848 27.9072L103.513 27.536ZM97.4293 12.344L97.7881 12.6922V12.6922L97.4293 12.344ZM97.4293 24.8L97.0705 25.1482V25.1482L97.4293 24.8ZM99.5893 28.832V28.332C97.746 28.332 96.2879 27.7199 95.1679 26.512L94.8013 26.852L94.4347 27.192C95.7627 28.6241 97.4966 29.332 99.5893 29.332V28.832ZM94.8013 26.852L95.1713 26.5157C94.0754 25.3102 93.5013 23.6538 93.5013 21.488H93.0013H92.5013C92.5013 23.8342 93.1272 25.7538 94.4313 27.1883L94.8013 26.852ZM93.0013 21.488H93.5013V15.692H93.0013H92.5013V21.488H93.0013ZM93.0013 15.692H93.5013C93.5013 13.5006 94.0762 11.8329 95.1713 10.6283L94.8013 10.292L94.4313 9.95566C93.1264 11.3911 92.5013 13.3234 92.5013 15.692H93.0013ZM94.8013 10.292L95.1713 10.6283C96.2649 9.42536 97.7199 8.812 99.5893 8.812V8.312V7.812C97.4747 7.812 95.7377 8.51864 94.4313 9.95566L94.8013 10.292ZM99.5893 8.312V8.812C101.127 8.812 102.306 9.22818 103.178 10.0152L103.513 9.644L103.848 9.2728C102.752 8.28382 101.315 7.812 99.5893 7.812V8.312ZM103.513 9.644L103.178 10.0152C104.044 10.7962 104.489 11.8422 104.489 13.208H104.989H105.489C105.489 11.5978 104.951 10.2678 103.848 9.2728L103.513 9.644ZM104.989 13.208L105.369 12.8826L104.721 12.1266L104.341 12.452L103.962 12.7774L104.61 13.5334L104.989 13.208ZM104.341 12.452V12.952H105.061V12.452V11.952H104.341V12.452ZM105.061 12.452L105.561 12.444L105.489 7.944L104.989 7.952L104.489 7.96L104.561 12.46L105.061 12.452ZM104.989 7.952H105.489V2.192H104.989H104.489V7.952H104.989ZM104.989 2.192V2.692H108.229V2.192V1.692H104.989V2.192ZM108.229 2.192H107.729V28.472H108.229H108.729V2.192H108.229ZM108.229 28.472V27.972H104.989V28.472V28.972H108.229V28.472ZM104.989 28.472H105.489V24.692H104.989H104.489V28.472H104.989ZM104.989 24.692V24.192H104.341V24.692V25.192H104.989V24.692ZM104.341 24.692L104.721 25.0174L105.369 24.2614L104.989 23.936L104.61 23.6106L103.962 24.3666L104.341 24.692ZM104.989 23.936H104.489C104.489 25.3285 104.042 26.3854 103.178 27.1648L103.513 27.536L103.848 27.9072C104.953 26.9106 105.489 25.5675 105.489 23.936H104.989ZM103.513 27.536L103.183 27.1603C102.312 27.9258 101.131 28.332 99.5893 28.332V28.832V29.332C101.312 29.332 102.747 28.8742 103.843 27.9117L103.513 27.536ZM100.669 26.024V26.524C102.126 26.524 103.326 26.0638 104.206 25.1014L103.837 24.764L103.468 24.4266C102.812 25.1442 101.901 25.524 100.669 25.524V26.024ZM103.837 24.764L104.206 25.1014C105.082 24.1438 105.489 22.8455 105.489 21.272H104.989H104.489C104.489 22.6745 104.129 23.7042 103.468 24.4266L103.837 24.764ZM104.989 21.272H105.489V15.872H104.989H104.489V21.272H104.989ZM104.989 15.872H105.489C105.489 14.2985 105.082 13.0002 104.206 12.0426L103.837 12.38L103.468 12.7174C104.129 13.4398 104.489 14.4695 104.489 15.872H104.989ZM103.837 12.38L104.206 12.0426C103.326 11.0802 102.126 10.62 100.669 10.62V11.12V11.62C101.901 11.62 102.812 11.9998 103.468 12.7174L103.837 12.38ZM100.669 11.12V10.62C99.1956 10.62 97.9754 11.0634 97.0705 11.9958L97.4293 12.344L97.7881 12.6922C98.4672 11.9925 99.407 11.62 100.669 11.62V11.12ZM97.4293 12.344L97.0705 11.9958C96.16 12.9339 95.7413 14.2527 95.7413 15.872H96.2413H96.7413C96.7413 14.4193 97.1147 13.3861 97.7881 12.6922L97.4293 12.344ZM96.2413 15.872H95.7413V21.272H96.2413H96.7413V15.872H96.2413ZM96.2413 21.272H95.7413C95.7413 22.8913 96.16 24.2101 97.0705 25.1482L97.4293 24.8L97.7881 24.4518C97.1147 23.7579 96.7413 22.7247 96.7413 21.272H96.2413ZM97.4293 24.8L97.0705 25.1482C97.9754 26.0806 99.1956 26.524 100.669 26.524V26.024V25.524C99.407 25.524 98.4672 25.1514 97.7881 24.4518L97.4293 24.8Z" fill="black" mask="url(#path-3-outside-2_6_6)"/>
<mask id="path-5-outside-3_6_6" maskUnits="userSpaceOnUse" x="112.985" y="1.6284" width="85" height="28" fill="black">
<rect fill="white" x="112.985" y="1.6284" width="85" height="28"/>
<path d="M114.263 28.6284V2.34839H118.511L121.247 10.8444C121.511 11.6124 121.751 12.3804 121.967 13.1484C122.183 13.8924 122.339 14.4684 122.435 14.8764C122.555 14.4684 122.711 13.8924 122.903 13.1484C123.095 12.3804 123.311 11.6004 123.551 10.8084L126.143 2.34839H130.391V28.6284H127.223V19.0884C127.223 18.0324 127.259 16.8324 127.331 15.4884C127.403 14.1444 127.499 12.7764 127.619 11.3844C127.739 9.96839 127.859 8.62439 127.979 7.35239C128.123 6.05639 128.243 4.92839 128.339 3.96839L124.091 17.1084H120.671L116.387 3.96839C116.507 4.90439 116.627 5.99639 116.747 7.24439C116.867 8.46839 116.975 9.77639 117.071 11.1684C117.167 12.5364 117.251 13.9044 117.323 15.2724C117.395 16.6404 117.431 17.9124 117.431 19.0884V28.6284H114.263ZM142.185 28.9884C140.097 28.9884 138.453 28.4604 137.253 27.4044C136.053 26.3244 135.453 24.8724 135.453 23.0484C135.453 21.2004 136.053 19.7484 137.253 18.6924C138.453 17.6364 140.073 17.1084 142.113 17.1084H148.233V15.1284C148.233 13.9044 147.861 12.9684 147.117 12.3204C146.397 11.6484 145.365 11.3124 144.021 11.3124C142.845 11.3124 141.861 11.5644 141.069 12.0684C140.277 12.5484 139.821 13.2084 139.701 14.0484H136.461C136.677 12.3444 137.481 10.9884 138.873 9.98039C140.265 8.97239 142.005 8.46839 144.093 8.46839C146.373 8.46839 148.173 9.05639 149.493 10.2324C150.813 11.4084 151.473 13.0044 151.473 15.0204V28.6284H148.305V24.8484H147.765L148.305 24.3084C148.305 25.7484 147.741 26.8884 146.613 27.7284C145.509 28.5684 144.033 28.9884 142.185 28.9884ZM142.977 26.4324C144.513 26.4324 145.773 26.0484 146.757 25.2804C147.741 24.5124 148.233 23.5284 148.233 22.3284V19.5204H142.185C141.105 19.5204 140.253 19.8204 139.629 20.4204C139.005 21.0204 138.693 21.8364 138.693 22.8684C138.693 23.9724 139.065 24.8484 139.809 25.4964C140.577 26.1204 141.633 26.4324 142.977 26.4324ZM158.695 28.6284V8.82839H161.863V12.6084H162.619L161.575 14.9484C161.575 12.8124 162.031 11.2044 162.943 10.1244C163.879 9.0204 165.259 8.46839 167.083 8.46839C169.171 8.46839 170.827 9.1284 172.051 10.4484C173.299 11.7444 173.923 13.5084 173.923 15.7404V16.9284H170.683V16.0284C170.683 14.4684 170.299 13.2804 169.531 12.4644C168.787 11.6244 167.719 11.2044 166.327 11.2044C164.959 11.2044 163.879 11.6244 163.087 12.4644C162.319 13.3044 161.935 14.4924 161.935 16.0284V28.6284H158.695ZM179.705 28.6284V2.34839H182.945V17.0004H186.761L192.521 8.82839H196.229L189.569 18.2604L196.337 28.6284H192.557L186.797 19.8084H182.945V28.6284H179.705Z"/>
</mask>
<path d="M114.263 28.6284V2.34839H118.511L121.247 10.8444C121.511 11.6124 121.751 12.3804 121.967 13.1484C122.183 13.8924 122.339 14.4684 122.435 14.8764C122.555 14.4684 122.711 13.8924 122.903 13.1484C123.095 12.3804 123.311 11.6004 123.551 10.8084L126.143 2.34839H130.391V28.6284H127.223V19.0884C127.223 18.0324 127.259 16.8324 127.331 15.4884C127.403 14.1444 127.499 12.7764 127.619 11.3844C127.739 9.96839 127.859 8.62439 127.979 7.35239C128.123 6.05639 128.243 4.92839 128.339 3.96839L124.091 17.1084H120.671L116.387 3.96839C116.507 4.90439 116.627 5.99639 116.747 7.24439C116.867 8.46839 116.975 9.77639 117.071 11.1684C117.167 12.5364 117.251 13.9044 117.323 15.2724C117.395 16.6404 117.431 17.9124 117.431 19.0884V28.6284H114.263ZM142.185 28.9884C140.097 28.9884 138.453 28.4604 137.253 27.4044C136.053 26.3244 135.453 24.8724 135.453 23.0484C135.453 21.2004 136.053 19.7484 137.253 18.6924C138.453 17.6364 140.073 17.1084 142.113 17.1084H148.233V15.1284C148.233 13.9044 147.861 12.9684 147.117 12.3204C146.397 11.6484 145.365 11.3124 144.021 11.3124C142.845 11.3124 141.861 11.5644 141.069 12.0684C140.277 12.5484 139.821 13.2084 139.701 14.0484H136.461C136.677 12.3444 137.481 10.9884 138.873 9.98039C140.265 8.97239 142.005 8.46839 144.093 8.46839C146.373 8.46839 148.173 9.05639 149.493 10.2324C150.813 11.4084 151.473 13.0044 151.473 15.0204V28.6284H148.305V24.8484H147.765L148.305 24.3084C148.305 25.7484 147.741 26.8884 146.613 27.7284C145.509 28.5684 144.033 28.9884 142.185 28.9884ZM142.977 26.4324C144.513 26.4324 145.773 26.0484 146.757 25.2804C147.741 24.5124 148.233 23.5284 148.233 22.3284V19.5204H142.185C141.105 19.5204 140.253 19.8204 139.629 20.4204C139.005 21.0204 138.693 21.8364 138.693 22.8684C138.693 23.9724 139.065 24.8484 139.809 25.4964C140.577 26.1204 141.633 26.4324 142.977 26.4324ZM158.695 28.6284V8.82839H161.863V12.6084H162.619L161.575 14.9484C161.575 12.8124 162.031 11.2044 162.943 10.1244C163.879 9.0204 165.259 8.46839 167.083 8.46839C169.171 8.46839 170.827 9.1284 172.051 10.4484C173.299 11.7444 173.923 13.5084 173.923 15.7404V16.9284H170.683V16.0284C170.683 14.4684 170.299 13.2804 169.531 12.4644C168.787 11.6244 167.719 11.2044 166.327 11.2044C164.959 11.2044 163.879 11.6244 163.087 12.4644C162.319 13.3044 161.935 14.4924 161.935 16.0284V28.6284H158.695ZM179.705 28.6284V2.34839H182.945V17.0004H186.761L192.521 8.82839H196.229L189.569 18.2604L196.337 28.6284H192.557L186.797 19.8084H182.945V28.6284H179.705Z" fill="#3B82F6"/>
<path d="M114.263 28.6284H113.763V29.1284H114.263V28.6284ZM114.263 2.34839V1.84839H113.763V2.34839H114.263ZM118.511 2.34839L118.987 2.19513L118.875 1.84839H118.511V2.34839ZM121.247 10.8444L120.771 10.9977L120.774 11.0069L121.247 10.8444ZM121.967 13.1484L121.486 13.2838L121.487 13.2878L121.967 13.1484ZM122.435 14.8764L121.948 14.9909L122.381 16.8311L122.915 15.0175L122.435 14.8764ZM122.903 13.1484L123.387 13.2733L123.388 13.2697L122.903 13.1484ZM123.551 10.8084L123.073 10.6619L123.073 10.6634L123.551 10.8084ZM126.143 2.34839V1.84839H125.773L125.665 2.20192L126.143 2.34839ZM130.391 2.34839H130.891V1.84839H130.391V2.34839ZM130.391 28.6284V29.1284H130.891V28.6284H130.391ZM127.223 28.6284H126.723V29.1284H127.223V28.6284ZM127.331 15.4884L126.832 15.4616V15.4616L127.331 15.4884ZM127.619 11.3844L128.117 11.4273L128.117 11.4266L127.619 11.3844ZM127.979 7.35239L127.482 7.29717L127.481 7.30543L127.979 7.35239ZM128.339 3.96839L128.837 4.01814L127.863 3.81459L128.339 3.96839ZM124.091 17.1084V17.6084H124.455L124.567 17.2622L124.091 17.1084ZM120.671 17.1084L120.196 17.2634L120.308 17.6084H120.671V17.1084ZM116.387 3.96839L116.862 3.81341L115.891 4.03197L116.387 3.96839ZM116.747 7.24439L116.249 7.29225L116.249 7.29318L116.747 7.24439ZM117.071 11.1684L116.572 11.2028L116.572 11.2034L117.071 11.1684ZM117.323 15.2724L117.822 15.2461V15.2461L117.323 15.2724ZM117.431 28.6284V29.1284H117.931V28.6284H117.431ZM114.263 28.6284H114.763V2.34839H114.263H113.763V28.6284H114.263ZM114.263 2.34839V2.84839H118.511V2.34839V1.84839H114.263V2.34839ZM118.511 2.34839L118.035 2.50166L120.771 10.9977L121.247 10.8444L121.723 10.6911L118.987 2.19513L118.511 2.34839ZM121.247 10.8444L120.774 11.0069C121.035 11.7661 121.272 12.5251 121.486 13.2838L121.967 13.1484L122.448 13.013C122.23 12.2357 121.987 11.4587 121.72 10.6819L121.247 10.8444ZM121.967 13.1484L121.487 13.2878C121.702 14.0292 121.855 14.5955 121.948 14.9909L122.435 14.8764L122.922 14.7619C122.823 14.3413 122.664 13.7556 122.447 13.009L121.967 13.1484ZM122.435 14.8764L122.915 15.0175C123.037 14.6015 123.195 14.0192 123.387 13.2733L122.903 13.1484L122.419 13.0235C122.227 13.7656 122.073 14.3353 121.955 14.7353L122.435 14.8764ZM122.903 13.1484L123.388 13.2697C123.578 12.51 123.792 11.7379 124.03 10.9534L123.551 10.8084L123.073 10.6634C122.83 11.4629 122.612 12.2508 122.418 13.0271L122.903 13.1484ZM123.551 10.8084L124.029 10.9549L126.621 2.49487L126.143 2.34839L125.665 2.20192L123.073 10.6619L123.551 10.8084ZM126.143 2.34839V2.84839H130.391V2.34839V1.84839H126.143V2.34839ZM130.391 2.34839H129.891V28.6284H130.391H130.891V2.34839H130.391ZM130.391 28.6284V28.1284H127.223V28.6284V29.1284H130.391V28.6284ZM127.223 28.6284H127.723V19.0884H127.223H126.723V28.6284H127.223ZM127.223 19.0884H127.723C127.723 18.0433 127.759 16.8525 127.83 15.5151L127.331 15.4884L126.832 15.4616C126.759 16.8123 126.723 18.0214 126.723 19.0884H127.223ZM127.331 15.4884L127.83 15.5151C127.902 14.1767 127.998 12.8141 128.117 11.4273L127.619 11.3844L127.121 11.3414C127.001 12.7386 126.904 14.112 126.832 15.4616L127.331 15.4884ZM127.619 11.3844L128.117 11.4266C128.237 10.012 128.357 8.66961 128.477 7.39935L127.979 7.35239L127.481 7.30543C127.361 8.57918 127.241 9.92476 127.121 11.3422L127.619 11.3844ZM127.979 7.35239L128.476 7.40761C128.62 6.11037 128.74 4.98047 128.837 4.01814L128.339 3.96839L127.842 3.91864C127.746 4.87632 127.626 6.00241 127.482 7.29718L127.979 7.35239ZM128.339 3.96839L127.863 3.81459L123.615 16.9546L124.091 17.1084L124.567 17.2622L128.815 4.1222L128.339 3.96839ZM124.091 17.1084V16.6084H120.671V17.1084V17.6084H124.091V17.1084ZM120.671 17.1084L121.146 16.9534L116.862 3.81341L116.387 3.96839L115.912 4.12338L120.196 17.2634L120.671 17.1084ZM116.387 3.96839L115.891 4.03197C116.01 4.96137 116.13 6.04791 116.249 7.29225L116.747 7.24439L117.245 7.19654C117.124 5.94487 117.004 4.84742 116.883 3.90481L116.387 3.96839ZM116.747 7.24439L116.249 7.29318C116.369 8.51181 116.477 9.81497 116.572 11.2028L117.071 11.1684L117.57 11.134C117.474 9.73782 117.365 8.42498 117.245 7.19561L116.747 7.24439ZM117.071 11.1684L116.572 11.2034C116.668 12.5685 116.752 13.9336 116.824 15.2987L117.323 15.2724L117.822 15.2461C117.75 13.8752 117.666 12.5043 117.57 11.1334L117.071 11.1684ZM117.323 15.2724L116.824 15.2987C116.895 16.6593 116.931 17.9224 116.931 19.0884H117.431H117.931C117.931 17.9023 117.895 16.6215 117.822 15.2461L117.323 15.2724ZM117.431 19.0884H116.931V28.6284H117.431H117.931V19.0884H117.431ZM117.431 28.6284V28.1284H114.263V28.6284V29.1284H117.431V28.6284ZM137.253 27.4044L136.919 27.7761L136.923 27.7798L137.253 27.4044ZM137.253 18.6924L136.923 18.317V18.317L137.253 18.6924ZM148.233 17.1084V17.6084H148.733V17.1084H148.233ZM147.117 12.3204L146.776 12.6859L146.782 12.6918L146.789 12.6974L147.117 12.3204ZM141.069 12.0684L141.328 12.4961L141.337 12.4902L141.069 12.0684ZM139.701 14.0484V14.5484H140.135L140.196 14.1191L139.701 14.0484ZM136.461 14.0484L135.965 13.9855L135.894 14.5484H136.461V14.0484ZM138.873 9.98039L139.166 10.3854V10.3854L138.873 9.98039ZM149.493 10.2324L149.826 9.85906V9.85906L149.493 10.2324ZM151.473 28.6284V29.1284H151.973V28.6284H151.473ZM148.305 28.6284H147.805V29.1284H148.305V28.6284ZM148.305 24.8484H148.805V24.3484H148.305V24.8484ZM147.765 24.8484L147.411 24.4948L146.558 25.3484H147.765V24.8484ZM148.305 24.3084H148.805V23.1013L147.951 23.9548L148.305 24.3084ZM146.613 27.7284L146.314 27.3274L146.31 27.3305L146.613 27.7284ZM146.757 25.2804L146.449 24.8862V24.8862L146.757 25.2804ZM148.233 19.5204H148.733V19.0204H148.233V19.5204ZM139.809 25.4964L139.481 25.8734L139.487 25.8791L139.494 25.8845L139.809 25.4964ZM142.185 28.9884V28.4884C140.181 28.4884 138.667 27.9827 137.583 27.029L137.253 27.4044L136.923 27.7798C138.239 28.9381 140.013 29.4884 142.185 29.4884V28.9884ZM137.253 27.4044L137.588 27.0327C136.507 26.0604 135.953 24.7511 135.953 23.0484H135.453H134.953C134.953 24.9937 135.599 26.5884 136.919 27.776L137.253 27.4044ZM135.453 23.0484H135.953C135.953 21.3193 136.509 20.0136 137.583 19.0678L137.253 18.6924L136.923 18.317C135.598 19.4832 134.953 21.0815 134.953 23.0484H135.453ZM137.253 18.6924L137.583 19.0678C138.669 18.1123 140.16 17.6084 142.113 17.6084V17.1084V16.6084C139.986 16.6084 138.237 17.1605 136.923 18.317L137.253 18.6924ZM142.113 17.1084V17.6084H148.233V17.1084V16.6084H142.113V17.1084ZM148.233 17.1084H148.733V15.1284H148.233H147.733V17.1084H148.233ZM148.233 15.1284H148.733C148.733 13.7975 148.324 12.7085 147.445 11.9434L147.117 12.3204L146.789 12.6974C147.398 13.2283 147.733 14.0113 147.733 15.1284H148.233ZM147.117 12.3204L147.458 11.9549C146.616 11.1691 145.445 10.8124 144.021 10.8124V11.3124V11.8124C145.285 11.8124 146.178 12.1277 146.776 12.6859L147.117 12.3204ZM144.021 11.3124V10.8124C142.774 10.8124 141.691 11.08 140.801 11.6466L141.069 12.0684L141.337 12.4902C142.031 12.0488 142.916 11.8124 144.021 11.8124V11.3124ZM141.069 12.0684L140.81 11.6408C139.903 12.1903 139.349 12.9746 139.206 13.9777L139.701 14.0484L140.196 14.1191C140.293 13.4422 140.651 12.9064 141.328 12.496L141.069 12.0684ZM139.701 14.0484V13.5484H136.461V14.0484V14.5484H139.701V14.0484ZM136.461 14.0484L136.957 14.1113C137.156 12.5445 137.886 11.3123 139.166 10.3854L138.873 9.98039L138.58 9.57542C137.076 10.6645 136.198 12.1443 135.965 13.9855L136.461 14.0484ZM138.873 9.98039L139.166 10.3854C140.456 9.45143 142.087 8.9684 144.093 8.9684V8.4684V7.9684C141.923 7.9684 140.074 8.49336 138.58 9.57542L138.873 9.98039ZM144.093 8.4684V8.9684C146.287 8.9684 147.956 9.53271 149.16 10.6057L149.493 10.2324L149.826 9.85906C148.39 8.58008 146.459 7.9684 144.093 7.9684V8.4684ZM149.493 10.2324L149.16 10.6057C150.358 11.673 150.973 13.1248 150.973 15.0204H151.473H151.973C151.973 12.8839 151.268 11.1438 149.826 9.85906L149.493 10.2324ZM151.473 15.0204H150.973V28.6284H151.473H151.973V15.0204H151.473ZM151.473 28.6284V28.1284H148.305V28.6284V29.1284H151.473V28.6284ZM148.305 28.6284H148.805V24.8484H148.305H147.805V28.6284H148.305ZM148.305 24.8484V24.3484H147.765V24.8484V25.3484H148.305V24.8484ZM147.765 24.8484L148.119 25.2019L148.659 24.6619L148.305 24.3084L147.951 23.9548L147.411 24.4948L147.765 24.8484ZM148.305 24.3084H147.805C147.805 25.5949 147.312 26.5844 146.314 27.3274L146.613 27.7284L146.912 28.1294C148.17 27.1924 148.805 25.9019 148.805 24.3084H148.305ZM146.613 27.7284L146.31 27.3305C145.318 28.0853 143.96 28.4884 142.185 28.4884V28.9884V29.4884C144.106 29.4884 145.7 29.0515 146.916 28.1263L146.613 27.7284ZM142.977 26.4324V26.9324C144.598 26.9324 145.974 26.5258 147.065 25.6746L146.757 25.2804L146.449 24.8862C145.572 25.571 144.428 25.9324 142.977 25.9324V26.4324ZM146.757 25.2804L147.065 25.6746C148.164 24.8162 148.733 23.6895 148.733 22.3284H148.233H147.733C147.733 23.3673 147.318 24.2086 146.449 24.8862L146.757 25.2804ZM148.233 22.3284H148.733V19.5204H148.233H147.733V22.3284H148.233ZM148.233 19.5204V19.0204H142.185V19.5204V20.0204H148.233V19.5204ZM142.185 19.5204V19.0204C141.009 19.0204 140.021 19.3496 139.282 20.06L139.629 20.4204L139.976 20.7808C140.485 20.2912 141.201 20.0204 142.185 20.0204V19.5204ZM139.629 20.4204L139.282 20.06C138.542 20.7722 138.193 21.7286 138.193 22.8684H138.693H139.193C139.193 21.9442 139.468 21.2686 139.976 20.7808L139.629 20.4204ZM138.693 22.8684H138.193C138.193 24.0977 138.614 25.1185 139.481 25.8734L139.809 25.4964L140.137 25.1194C139.516 24.5783 139.193 23.847 139.193 22.8684H138.693ZM139.809 25.4964L139.494 25.8845C140.378 26.6031 141.559 26.9324 142.977 26.9324V26.4324V25.9324C141.707 25.9324 140.776 25.6377 140.124 25.1083L139.809 25.4964ZM158.695 28.6284H158.195V29.1284H158.695V28.6284ZM158.695 8.82839V8.32839H158.195V8.82839H158.695ZM161.863 8.82839H162.363V8.32839H161.863V8.82839ZM161.863 12.6084H161.363V13.1084H161.863V12.6084ZM162.619 12.6084L163.076 12.8121L163.39 12.1084H162.619V12.6084ZM161.575 14.9484H161.075L162.032 15.1521L161.575 14.9484ZM162.943 10.1244L162.562 9.80105L162.561 9.80181L162.943 10.1244ZM172.051 10.4484L171.684 10.7884L171.691 10.7952L172.051 10.4484ZM173.923 16.9284V17.4284H174.423V16.9284H173.923ZM170.683 16.9284H170.183V17.4284H170.683V16.9284ZM169.531 12.4644L169.157 12.7959L169.162 12.8016L169.167 12.8071L169.531 12.4644ZM163.087 12.4644L162.723 12.1213L162.718 12.127L163.087 12.4644ZM161.935 28.6284V29.1284H162.435V28.6284H161.935ZM158.695 28.6284H159.195V8.82839H158.695H158.195V28.6284H158.695ZM158.695 8.82839V9.32839H161.863V8.82839V8.32839H158.695V8.82839ZM161.863 8.82839H161.363V12.6084H161.863H162.363V8.82839H161.863ZM161.863 12.6084V13.1084H162.619V12.6084V12.1084H161.863V12.6084ZM162.619 12.6084L162.162 12.4047L161.118 14.7447L161.575 14.9484L162.032 15.1521L163.076 12.8121L162.619 12.6084ZM161.575 14.9484H162.075C162.075 12.8724 162.52 11.4006 163.325 10.447L162.943 10.1244L162.561 9.80181C161.542 11.0082 161.075 12.7524 161.075 14.9484H161.575ZM162.943 10.1244L163.324 10.4477C164.142 9.48392 165.365 8.9684 167.083 8.9684V8.4684V7.9684C165.153 7.9684 163.616 8.55687 162.562 9.80105L162.943 10.1244ZM167.083 8.4684V8.9684C169.056 8.9684 170.57 9.58699 171.684 10.7884L172.051 10.4484L172.418 10.1084C171.084 8.6698 169.286 7.9684 167.083 7.9684V8.4684ZM172.051 10.4484L171.691 10.7952C172.829 11.9769 173.423 13.605 173.423 15.7404H173.923H174.423C174.423 13.4118 173.769 11.5119 172.411 10.1016L172.051 10.4484ZM173.923 15.7404H173.423V16.9284H173.923H174.423V15.7404H173.923ZM173.923 16.9284V16.4284H170.683V16.9284V17.4284H173.923V16.9284ZM170.683 16.9284H171.183V16.0284H170.683H170.183V16.9284H170.683ZM170.683 16.0284H171.183C171.183 14.3914 170.78 13.0616 169.895 12.1217L169.531 12.4644L169.167 12.8071C169.818 13.4992 170.183 14.5454 170.183 16.0284H170.683ZM169.531 12.4644L169.905 12.1329C169.044 11.1607 167.825 10.7044 166.327 10.7044V11.2044V11.7044C167.613 11.7044 168.53 12.0881 169.157 12.7959L169.531 12.4644ZM166.327 11.2044V10.7044C164.849 10.7044 163.627 11.1627 162.723 12.1214L163.087 12.4644L163.451 12.8074C164.131 12.0861 165.069 11.7044 166.327 11.7044V11.2044ZM163.087 12.4644L162.718 12.127C161.84 13.0873 161.435 14.4118 161.435 16.0284H161.935H162.435C162.435 14.573 162.798 13.5214 163.456 12.8018L163.087 12.4644ZM161.935 16.0284H161.435V28.6284H161.935H162.435V16.0284H161.935ZM161.935 28.6284V28.1284H158.695V28.6284V29.1284H161.935V28.6284ZM179.705 28.6284H179.205V29.1284H179.705V28.6284ZM179.705 2.34839V1.84839H179.205V2.34839H179.705ZM182.945 2.34839H183.445V1.84839H182.945V2.34839ZM182.945 17.0004H182.445V17.5004H182.945V17.0004ZM186.761 17.0004V17.5004H187.02L187.17 17.2885L186.761 17.0004ZM192.521 8.82839V8.32839H192.262L192.112 8.54034L192.521 8.82839ZM196.229 8.82839L196.637 9.1168L197.194 8.32839H196.229V8.82839ZM189.569 18.2604L189.16 17.972L188.965 18.2494L189.15 18.5337L189.569 18.2604ZM196.337 28.6284V29.1284H197.26L196.756 28.3551L196.337 28.6284ZM192.557 28.6284L192.138 28.9018L192.286 29.1284H192.557V28.6284ZM186.797 19.8084L187.216 19.535L187.068 19.3084H186.797V19.8084ZM182.945 19.8084V19.3084H182.445V19.8084H182.945ZM182.945 28.6284V29.1284H183.445V28.6284H182.945ZM179.705 28.6284H180.205V2.34839H179.705H179.205V28.6284H179.705ZM179.705 2.34839V2.84839H182.945V2.34839V1.84839H179.705V2.34839ZM182.945 2.34839H182.445V17.0004H182.945H183.445V2.34839H182.945ZM182.945 17.0004V17.5004H186.761V17.0004V16.5004H182.945V17.0004ZM186.761 17.0004L187.17 17.2885L192.93 9.11645L192.521 8.82839L192.112 8.54034L186.352 16.7123L186.761 17.0004ZM192.521 8.82839V9.32839H196.229V8.82839V8.32839H192.521V8.82839ZM196.229 8.82839L195.82 8.53999L189.16 17.972L189.569 18.2604L189.977 18.5488L196.637 9.1168L196.229 8.82839ZM189.569 18.2604L189.15 18.5337L195.918 28.9017L196.337 28.6284L196.756 28.3551L189.988 17.9871L189.569 18.2604ZM196.337 28.6284V28.1284H192.557V28.6284V29.1284H196.337V28.6284ZM192.557 28.6284L192.976 28.355L187.216 19.535L186.797 19.8084L186.378 20.0818L192.138 28.9018L192.557 28.6284ZM186.797 19.8084V19.3084H182.945V19.8084V20.3084H186.797V19.8084ZM182.945 19.8084H182.445V28.6284H182.945H183.445V19.8084H182.945ZM182.945 28.6284V28.1284H179.705V28.6284V29.1284H182.945V28.6284Z" fill="black" mask="url(#path-5-outside-3_6_6)"/>
</svg>
