<svg width="220" height="31" viewBox="0 0 220 31" fill="none" xmlns="http://www.w3.org/2000/svg">
<path d="M203.098 26.5858C202.819 26.5858 202.596 26.5051 202.427 26.3438C202.266 26.1824 202.185 25.9661 202.185 25.6948C202.185 25.4088 202.266 25.1814 202.427 25.0128C202.596 24.8441 202.819 24.7598 203.098 24.7598C203.377 24.7598 203.597 24.8441 203.758 25.0128C203.927 25.1814 204.011 25.4088 204.011 25.6948C204.011 25.9661 203.927 26.1824 203.758 26.3438C203.597 26.5051 203.377 26.5858 203.098 26.5858ZM209.738 26.5858C209.254 26.5858 208.828 26.4941 208.462 26.3108C208.102 26.1274 207.824 25.8634 207.626 25.5188C207.428 25.1668 207.329 24.7524 207.329 24.2758V22.6258C207.329 22.1418 207.428 21.7274 207.626 21.3828C207.824 21.0381 208.102 20.7741 208.462 20.5908C208.828 20.4074 209.254 20.3158 209.738 20.3158C210.434 20.3158 210.995 20.5028 211.421 20.8768C211.846 21.2508 212.07 21.7604 212.092 22.4058H211.102C211.08 22.0171 210.948 21.7201 210.706 21.5148C210.471 21.3021 210.148 21.1958 209.738 21.1958C209.305 21.1958 208.96 21.3204 208.704 21.5698C208.447 21.8118 208.319 22.1601 208.319 22.6148V24.2758C208.319 24.7304 208.447 25.0824 208.704 25.3318C208.96 25.5811 209.305 25.7058 209.738 25.7058C210.148 25.7058 210.471 25.5994 210.706 25.3868C210.948 25.1741 211.08 24.8771 211.102 24.4958H212.092C212.07 25.1411 211.846 25.6508 211.421 26.0248C210.995 26.3988 210.434 26.5858 209.738 26.5858ZM216.289 26.5638C215.805 26.5638 215.387 26.4721 215.035 26.2888C214.683 26.1054 214.408 25.8414 214.21 25.4968C214.02 25.1448 213.924 24.7304 213.924 24.2538V22.6478C213.924 22.1638 214.02 21.7494 214.21 21.4048C214.408 21.0601 214.683 20.7961 215.035 20.6128C215.387 20.4294 215.805 20.3378 216.289 20.3378C216.773 20.3378 217.191 20.4294 217.543 20.6128C217.895 20.7961 218.167 21.0601 218.357 21.4048C218.555 21.7494 218.654 22.1601 218.654 22.6368V24.2538C218.654 24.7304 218.555 25.1448 218.357 25.4968C218.167 25.8414 217.895 26.1054 217.543 26.2888C217.191 26.4721 216.773 26.5638 216.289 26.5638ZM216.289 25.6838C216.722 25.6838 217.059 25.5628 217.301 25.3208C217.543 25.0788 217.664 24.7231 217.664 24.2538V22.6478C217.664 22.1784 217.543 21.8228 217.301 21.5808C217.059 21.3388 216.722 21.2178 216.289 21.2178C215.864 21.2178 215.527 21.3388 215.277 21.5808C215.035 21.8228 214.914 22.1784 214.914 22.6478V24.2538C214.914 24.7231 215.035 25.0788 215.277 25.3208C215.527 25.5628 215.864 25.6838 216.289 25.6838Z" fill="white"/>
<path d="M14.5416 28.36C12.9576 28.36 11.5776 28.06 10.4016 27.46C9.24956 26.86 8.34956 25.996 7.70156 24.868C7.07756 23.716 6.76556 22.36 6.76556 20.8V8.92C6.76556 7.336 7.07756 5.98 7.70156 4.852C8.34956 3.724 9.24956 2.86 10.4016 2.26C11.5776 1.66 12.9576 1.36 14.5416 1.36C16.1256 1.36 17.4936 1.672 18.6456 2.296C19.7976 2.896 20.6856 3.76 21.3096 4.888C21.9336 6.016 22.2456 7.36 22.2456 8.92H19.0056C19.0056 7.432 18.6096 6.292 17.8176 5.5C17.0496 4.684 15.9576 4.276 14.5416 4.276C13.1256 4.276 12.0096 4.672 11.1936 5.464C10.4016 6.256 10.0056 7.396 10.0056 8.884V20.8C10.0056 22.288 10.4016 23.44 11.1936 24.256C12.0096 25.072 13.1256 25.48 14.5416 25.48C15.9576 25.48 17.0496 25.072 17.8176 24.256C18.6096 23.44 19.0056 22.288 19.0056 20.8V17.56H13.6776V14.608H22.2456V20.8C22.2456 22.336 21.9336 23.68 21.3096 24.832C20.6856 25.96 19.7976 26.836 18.6456 27.46C17.4936 28.06 16.1256 28.36 14.5416 28.36ZM35.9475 28.36C33.6675 28.36 31.8435 27.688 30.4755 26.344C29.1075 24.976 28.4235 23.128 28.4235 20.8V8.2H31.6635V20.8C31.6635 22.288 32.0475 23.452 32.8155 24.292C33.5835 25.108 34.6275 25.516 35.9475 25.516C37.2915 25.516 38.3475 25.108 39.1155 24.292C39.9075 23.452 40.3035 22.288 40.3035 20.8V8.2H43.5435V20.8C43.5435 23.128 42.8475 24.976 41.4555 26.344C40.0635 27.688 38.2275 28.36 35.9475 28.36ZM49.8294 28V25.048H56.8494V11.152H50.7294V8.2H60.0894V25.048H66.7494V28H49.8294ZM58.1094 4.636C57.3174 4.636 56.6934 4.432 56.2374 4.024C55.7814 3.616 55.5534 3.064 55.5534 2.368C55.5534 1.648 55.7814 1.084 56.2374 0.675998C56.6934 0.243999 57.3174 0.0279996 58.1094 0.0279996C58.9014 0.0279996 59.5254 0.243999 59.9814 0.675998C60.4374 1.084 60.6654 1.648 60.6654 2.368C60.6654 3.064 60.4374 3.616 59.9814 4.024C59.5254 4.432 58.9014 4.636 58.1094 4.636ZM81.8554 28C80.7034 28 79.6954 27.772 78.8314 27.316C77.9674 26.86 77.2954 26.212 76.8154 25.372C76.3354 24.532 76.0954 23.548 76.0954 22.42V4.672H69.4354V1.72H79.3354V22.42C79.3354 23.236 79.5634 23.884 80.0194 24.364C80.4754 24.82 81.0874 25.048 81.8554 25.048H88.1554V28H81.8554ZM99.5893 28.36C97.6213 28.36 96.0253 27.7 94.8013 26.38C93.6013 25.06 93.0013 23.272 93.0013 21.016V15.22C93.0013 12.94 93.6013 11.14 94.8013 9.82C96.0013 8.5 97.5973 7.84 99.5893 7.84C101.221 7.84 102.529 8.284 103.513 9.172C104.497 10.06 104.989 11.248 104.989 12.736L104.341 11.98H105.061L104.989 7.48V1.72H108.229V28H104.989V24.22H104.341L104.989 23.464C104.989 24.976 104.497 26.176 103.513 27.064C102.529 27.928 101.221 28.36 99.5893 28.36ZM100.669 25.552C102.013 25.552 103.069 25.132 103.837 24.292C104.605 23.452 104.989 22.288 104.989 20.8V15.4C104.989 13.912 104.605 12.748 103.837 11.908C103.069 11.068 102.013 10.648 100.669 10.648C99.3013 10.648 98.2213 11.056 97.4293 11.872C96.6373 12.688 96.2413 13.864 96.2413 15.4V20.8C96.2413 22.336 96.6373 23.512 97.4293 24.328C98.2213 25.144 99.3013 25.552 100.669 25.552Z" fill="white"/>
<path d="M114.263 28.1564V1.87639H118.511L121.247 10.3724C121.511 11.1404 121.751 11.9084 121.967 12.6764C122.183 13.4204 122.339 13.9964 122.435 14.4044C122.555 13.9964 122.711 13.4204 122.903 12.6764C123.095 11.9084 123.311 11.1284 123.551 10.3364L126.143 1.87639H130.391V28.1564H127.223V18.6164C127.223 17.5604 127.259 16.3604 127.331 15.0164C127.403 13.6724 127.499 12.3044 127.619 10.9124C127.739 9.49639 127.859 8.15239 127.979 6.88039C128.123 5.58439 128.243 4.45639 128.339 3.49639L124.091 16.6364H120.671L116.387 3.49639C116.507 4.43239 116.627 5.52439 116.747 6.77239C116.867 7.99639 116.975 9.30439 117.071 10.6964C117.167 12.0644 117.251 13.4324 117.323 14.8004C117.395 16.1684 117.431 17.4404 117.431 18.6164V28.1564H114.263ZM142.185 28.5164C140.097 28.5164 138.453 27.9884 137.253 26.9324C136.053 25.8524 135.453 24.4004 135.453 22.5764C135.453 20.7284 136.053 19.2764 137.253 18.2204C138.453 17.1644 140.073 16.6364 142.113 16.6364H148.233V14.6564C148.233 13.4324 147.861 12.4964 147.117 11.8484C146.397 11.1764 145.365 10.8404 144.021 10.8404C142.845 10.8404 141.861 11.0924 141.069 11.5964C140.277 12.0764 139.821 12.7364 139.701 13.5764H136.461C136.677 11.8724 137.481 10.5164 138.873 9.50839C140.265 8.50039 142.005 7.99639 144.093 7.99639C146.373 7.99639 148.173 8.58439 149.493 9.76039C150.813 10.9364 151.473 12.5324 151.473 14.5484V28.1564H148.305V24.3764H147.765L148.305 23.8364C148.305 25.2764 147.741 26.4164 146.613 27.2564C145.509 28.0964 144.033 28.5164 142.185 28.5164ZM142.977 25.9604C144.513 25.9604 145.773 25.5764 146.757 24.8084C147.741 24.0404 148.233 23.0564 148.233 21.8564V19.0484H142.185C141.105 19.0484 140.253 19.3484 139.629 19.9484C139.005 20.5484 138.693 21.3644 138.693 22.3964C138.693 23.5004 139.065 24.3764 139.809 25.0244C140.577 25.6484 141.633 25.9604 142.977 25.9604ZM158.695 28.1564V8.35639H161.863V12.1364H162.619L161.575 14.4764C161.575 12.3404 162.031 10.7324 162.943 9.6524C163.879 8.54839 165.259 7.99639 167.083 7.99639C169.171 7.99639 170.827 8.65639 172.051 9.9764C173.299 11.2724 173.923 13.0364 173.923 15.2684V16.4564H170.683V15.5564C170.683 13.9964 170.299 12.8084 169.531 11.9924C168.787 11.1524 167.719 10.7324 166.327 10.7324C164.959 10.7324 163.879 11.1524 163.087 11.9924C162.319 12.8324 161.935 14.0204 161.935 15.5564V28.1564H158.695ZM179.705 28.1564V1.87639H182.945V16.5284H186.761L192.521 8.35639H196.229L189.569 17.7884L196.337 28.1564H192.557L186.797 19.3364H182.945V28.1564H179.705Z" fill="#3B82F6"/>
</svg>
